<?xml version="1.0" encoding="utf-8"?>
<!-- Generator: Adobe Illustrator 28.1.0, SVG Export Plug-In . SVG Version: 6.00 Build 0)  -->
<svg version="1.1" id="Layer_1" xmlns="http://www.w3.org/2000/svg" xmlns:xlink="http://www.w3.org/1999/xlink" x="0px" y="0px"
	 viewBox="0 0 1366 768" style="enable-background:new 0 0 1366 768;" xml:space="preserve">
<style type="text/css">
	.st0{fill:none;stroke:#FFFFFF;stroke-width:11;stroke-linecap:round;stroke-linejoin:round;}
	.st1{fill:#FFFFFF;stroke:#4D6689;stroke-width:11;stroke-linecap:round;stroke-linejoin:round;}
	.st2{fill:#D6DCE7;}
	.st3{fill:#7AA1C9;}
	.st4{fill:none;stroke:#4D6689;stroke-width:6;stroke-miterlimit:10;}
</style>
<polygon class="st0" points="507.9,600.3 595.9,513.9 570.1,393.4 684.6,449.4 795.1,391.3 777.9,512.2 872,596.9 746.9,615.7 
	694.6,726 634.4,616.7 "/>
<polygon id="XMLID_00000145752237524284110070000011019880758245312905_" class="st1" points="710,521 779.3,454.7 758,361.2 
	849.3,405.2 936.6,361 923.8,454.5 999,520.7 899.8,534.4 859,619.6 810.5,534.5 "/>
<polygon class="st1" points="390.3,701.7 391.6,606.3 317.4,546.4 404.3,523.7 431.5,434.3 483.9,515.7 574.8,520.4 520.3,593.4 
	549.4,685.7 463.3,649.4 "/>
<g>
	<path class="st2" d="M198.3,130.4c-2.7,1.4-17.9,13.3-22.2,13.3c-6.8,0-8.7-9.5-17.6-9.5c-5.4,0-15.7,8.4-16,14.1
		c-0.5,13.6,14.9,19.8,23,29.5c8.1,9.5,18.7,20.6,18.2,34.7c-0.5,17.9-10.6,32.5-23.3,45.8c-10.6,11.1-17.9,25.5-36,25.5
		c-13,0-29.8-12.5-35.2-22.5c-5.7-10.3-13-12.2,1.6-28.5c3.3-3.5,19.5-20.6,23.3-17.6c7.3,6-0.5,17.3,0.5,20.6
		c3,8.7,12.2,19.2,23,19.2c9.8,0,20.6-6.8,20.9-15.4c0.3-8.7-5.4-20.1-11.1-25.7c-13.3-13.6-36.6-27.6-35.8-49.3
		c0.3-10.3,18.2-25.7,26.8-33.9c5.4-5.1,30.4-24.9,38.8-24.9c10.8,0,11.1,5.1,18.2,8.7c4.6,2.2,10.8,0.8,11.9,6
		C208.3,125.5,198.3,130.4,198.3,130.4z"/>
	<path class="st2" d="M279.1,130.7c-10.6,1.4-17.1,1.9-25.5,2.2c-3.3,13-12.2,52-14.6,65.9c-2.7,15.2-5.4,35.2,0,44.2
		c6.8,11.1,21.7,16.3,47.4-4.3c9.8-7.9,14.6-2.4,8.1,3.8c-11.9,11.7-27.4,30.1-41.2,40.4c-12.5,9.2-19.5,10.3-32.2,7.9
		c-7.9-1.6-13.6-8.9-17.1-20.6c-5.7-19.8,7.6-60.7,11.7-75.3c5.7-20.6,11.9-46.1,16.5-62.3c-9.5,0.8-33.6,7.6-29.8,3
		c9.5-11.1,27.1-20.6,38.8-28.7c1.1-17.6,0.5-13.8,10.8-25.5c7.9-8.7,13-18.2,19.2-24.1c3.3-3,14.6-9.8,12.2,2.7
		c-1.6,8.1-7.9,15.4-11.1,26c-3,8.9-5.7,16.8-7.3,22.2c13.5,1.4,24.1,0.5,39.8,0c8.7-0.3,4.6,3.3,0.5,7.3
		C300.5,120.4,292.1,129,279.1,130.7z"/>
	<path class="st2" d="M422.4,241c-13,9.2-46.3,34.7-64,42c-13,5.4-8.9-31.4-6.8-43.1c-7,2.4-21.4,22-29.3,27.1
		c-16.5,10.8-34.7,15.4-38.2,2.4c-0.5-2.4-5.7-12.5-6.8-23c-1.9-19.8,5.1-33.1,17.3-50.4c7.6-10.8,30.4-26,43.9-32
		c14.4-6.2,23.3-7.6,30.6-8.7c0.5-3.8,7.3-31.2,1.4-30.9c-7.9,0.5-31.7,11.7-37.9,16.5c-6.8,5.4-1.9,11.7-9.2,16.3
		c-10.6,6.5-27.6-10.6-14.1-19.5c13-8.7,23-10.3,38.5-17.3c7-3.3,37.7-14.1,45.5-14.9c10-1.1,13.3,13,12.7,20.9
		c-0.3,4.3-10.3,46.9-12.2,56.9c-2.2,12.7-4.9,24.4-6.5,39c-1.4,11.7-3.3,24.4,2.2,26.3c4.3,1.6,24.1-15.4,33.1-20.6
		c3.5-1.9,6.8-1.6,7.3-0.5C431.3,229.8,431.1,235,422.4,241z M346.3,174c-4.6,1.1-15.4,7-29.8,20.1c-6,5.4-10.8,13.6-8.4,26
		c2.7,13.8,11.9,22.8,20.1,20.9c5.1-1.1,14.4-7.9,26-16.5c4.9-10.8,4.9-13.6,6.8-20.3c3.5-12.2,3.5-14.9,5.1-27.6
		C361.7,174,351.7,172.7,346.3,174z"/>
	<path class="st2" d="M554.9,142.8c-4.6,6.5-28.5,24.4-38.5,27.1c-8.4,2.2-10.3-16.5-17.1-14.4c-7.9,2.4-13.8,11.7-20.9,19
		c-15.2,16-20.3,30.9-23.6,37.7c-5.4,11.4-2.7,25.5,2.2,24.7c4.6-0.8,8.7,2.7,3.5,10.3c-2.7,4.3-33.1,24.4-35,25.7
		c-13.6,8.9-21.4,9.8-20.3,1.6c0.5-4.6,9.5-12.7,13.5-23.6c5.1-13.3,10.8-34.1,12.7-47.7c2.2-16,4.3-29.5,2.2-44.2
		c-0.5-3.5-13-6.8-10.3-11.7c3.5-6.2,17.1-11.1,24.9-16c8.7-5.1,23.3-20.6,29.8-20.6c4.6,0,0.5,13.8-1.9,21.4
		c-2.4,7.3-9.2,26.6-11.4,33.9c12.7-13,22-26.3,33.3-41.2c8.4-11.1,14.6-20.6,21.1-20.6c7,0,5.7,4.9,7.6,10.3
		c1.9,5.7,5.1,22.8,12.5,25.2c3.8,1.4,15.7-4.6,16.8-1.6C556.8,139.6,556,141.2,554.9,142.8z"/>
	<path class="st2" d="M715.1,130.4c-2.7,1.4-17.9,13.3-22.2,13.3c-6.8,0-8.7-9.5-17.6-9.5c-5.4,0-15.7,8.4-16,14.1
		c-0.5,13.6,14.9,19.8,23,29.5c8.1,9.5,18.7,20.6,18.2,34.7c-0.5,17.9-10.6,32.5-23.3,45.8c-10.6,11.1-17.9,25.5-36,25.5
		c-13,0-29.8-12.5-35.2-22.5c-5.7-10.3-13-12.2,1.6-28.5c3.3-3.5,19.5-20.6,23.3-17.6c7.3,6-0.5,17.3,0.5,20.6
		c3,8.7,12.2,19.2,23,19.2c9.8,0,20.6-6.8,20.9-15.4c0.3-8.7-5.4-20.1-11.1-25.7c-13.3-13.6-36.6-27.6-35.8-49.3
		c0.3-10.3,18.2-25.7,26.8-33.9c5.4-5.1,30.4-24.9,38.8-24.9c10.8,0,11.1,5.1,18.2,8.7c4.6,2.2,10.8,0.8,11.9,6
		C725.1,125.5,715.1,130.4,715.1,130.4z"/>
	<path class="st2" d="M795.8,130.7c-10.6,1.4-17.1,1.9-25.5,2.2c-3.3,13-12.2,52-14.6,65.9c-2.7,15.2-5.4,35.2,0,44.2
		c6.8,11.1,21.7,16.3,47.4-4.3c9.8-7.9,14.6-2.4,8.1,3.8c-11.9,11.7-27.4,30.1-41.2,40.4c-12.5,9.2-19.5,10.3-32.2,7.9
		c-7.9-1.6-13.6-8.9-17.1-20.6c-5.7-19.8,7.6-60.7,11.7-75.3c5.7-20.6,11.9-46.1,16.5-62.3c-9.5,0.8-33.6,7.6-29.8,3
		c9.5-11.1,27.1-20.6,38.8-28.7c1.1-17.6,0.5-13.8,10.8-25.5c7.9-8.7,13-18.2,19.2-24.1c3.3-3,14.6-9.8,12.2,2.7
		c-1.6,8.1-7.9,15.4-11.1,26c-3,8.9-5.7,16.8-7.3,22.2c13.6,1.4,24.1,0.5,39.8,0c8.7-0.3,4.6,3.3,0.5,7.3
		C817.2,120.4,808.8,129,795.8,130.7z"/>
	<path class="st2" d="M940.8,142.8c-4.6,6.5-28.5,24.4-38.5,27.1c-8.4,2.2-10.3-16.5-17.1-14.4c-7.9,2.4-13.8,11.7-20.9,19
		c-15.2,16-20.3,30.9-23.6,37.7c-5.4,11.4-2.7,25.5,2.2,24.7c4.6-0.8,8.7,2.7,3.5,10.3c-2.7,4.3-33.1,24.4-35,25.7
		c-13.6,8.9-21.4,9.8-20.3,1.6c0.5-4.6,9.5-12.7,13.6-23.6c5.1-13.3,10.8-34.1,12.7-47.7c2.2-16,4.3-29.5,2.2-44.2
		c-0.5-3.5-13-6.8-10.3-11.7c3.5-6.2,17.1-11.1,24.9-16c8.7-5.1,23.3-20.6,29.8-20.6c4.6,0,0.5,13.8-1.9,21.4
		c-2.4,7.3-9.2,26.6-11.4,33.9c12.7-13,22-26.3,33.3-41.2c8.4-11.1,14.6-20.6,21.1-20.6c7,0,5.7,4.9,7.6,10.3
		c1.9,5.7,5.1,22.8,12.5,25.2c3.8,1.4,15.7-4.6,16.8-1.6C942.7,139.6,941.9,141.2,940.8,142.8z"/>
	<path class="st2" d="M1041.9,248c-16.8,11.1-34.4,26.8-48.8,27.6c-4.1,0.3-5.7-1.9-4.1-11.4c2.7-15.4,6.2-30.9,7.9-40.4
		c-6.8,5.1-25.5,24.7-36.6,33.1c-11.1,8.4-30.6,22-39.8,23.3c-16,2.4-9.5-24.9-7.3-38.8c2.7-18.2,7.9-36,13.6-70.2
		c1.4-8.1,5.1-20.3-6.2-18.4c-3.2,0.5-6-5.4-3-7.9c8.1-6.2,15.7-6.5,24.4-14.6c2.2-2.2,22.8-15.7,26-16.5c6.2-1.9,6.2,6,5.7,7.6
		c-1.9,7.3-5.7,19.5-8.1,28.2c-5.1,17.3-9.2,37.4-11.9,52.8c-3.3,18.4-7.6,41.5,6.5,37.7c8.9-2.4,25.7-18.2,35.8-27.4
		c4.1-13.6,7.9-29.8,10-45.3c1.4-9.5,4.9-13.5-0.8-24.4c-4.9-8.9,22-29,30.6-31.7c16.3-5.4,11.1,3.8,8.7,16.5
		c-2.7,14.4-11.9,51.8-16.8,74c-3.8,17.1-1.6,36.6,5.1,36.6c11.1,0,26.3-19.5,33.6-23.8c3.3-1.9,10.6,0.8,7.3,7
		C1069.8,229.3,1061.1,235.3,1041.9,248z"/>
	<path class="st2" d="M1119.4,259.9c-16.5,14.4-35.5,21.7-46.6,15.7c-13.8-7.3-17.3-30.9-20.1-49.6c-1.4-9.2-5.1-21.7-2.2-30.6
		c8.1-24.1,18.7-34.1,36.3-50.9c7.9-7.3,15.2-13.8,24.7-19c7.6-4.1,25.7-18.2,34.1-17.6c11.4,0.5,22.5,15.4,20.3,25.7
		c-0.8,3.5-14.1,15.2-23,21.7c-3.8,2.7-12.5,12.2-15.2,9.8c-3.3-3,0.8-12.7,0.8-16.8c-0.3-6.2-4.9-11.1-13.6-11.7
		c-8.9-0.5-27.6,28.2-30.9,40.9c-3,11.9,1.9,27.6,4.3,36c4.1,14.6,9.8,30.9,19.8,31.4c11.7,0.8,55.6-39,63.7-42.3
		c3.8-1.6,7.3,3,5.1,6.2C1173,214.9,1128.3,252.1,1119.4,259.9z"/>
	<path class="st2" d="M1274.7,284.3c-12.5,5.4-24.9-4.1-33.6-8.9c-23.8-13.6-40.1-33.1-53.4-56.4c-2.7,9.8-4.9,19.2-4.9,28.2
		c0,4.9,4.1,8.1,2.4,12.2c-3.3,7.6-17.3,19-24.9,19c-5.1,0-8.1-4.3-4.3-8.9c8.9-10.8,10-25.5,12.7-38.8c6.2-31.7,17.1-71.8,18.2-103
		c0.3-9.8,2.2-26-2.2-35.2c-1.9-4.1-14.4-7.3-11.7-12.7c4.9-9.8,20.6-10,32-16.5c9.8-5.7,20.6-15.4,25.5-19.8
		c4.6-3.8,9.5-3.3,14.6-0.8c3.8,1.9-4.1,8.4-6.5,12.5c-17.3,29.8-21.1,58.3-30.9,90.8c10.6-10.8,23.3-22.5,41.5-35
		c17.1-11.9,29-13,26.6,15.2c-1.4,17.6,5.4,27.9-6.5,42.8c-11.9,14.9-28.5,23-43.4,30.9c3.8,14.4,14.9,35.2,19.2,43.6
		c9.8,18.2,20.9,27.9,37.9,24.4C1287.4,267,1280.6,281.9,1274.7,284.3z M1216.9,154.5c-4.9,5.7-10.6,10.8-15.7,15.7
		c-2.4,10.8-4.9,21.4-8.4,32.3c10.8-5.7,23-10,30.4-17.6c12.5-12.7,12.7-20.1,11.1-37.7C1233.5,138.8,1222.4,148.3,1216.9,154.5z"/>
</g>
<rect x="0" class="st3" width="1367" height="770"/>
<polygon class="st4" points="928.8,294.1 895.5,387.4 952.4,464.6 854.6,465.3 796.6,546.4 769.4,453.5 676.5,426.4 757.6,368.3 
	758.3,270.5 835.5,327.4 "/>
</svg>
